#!OML:ASF F:\VICON\USERDATA\INSTALL\rory3\rory3.ASF
:FULLY-SPECIFIED
:DEGREES
1704
root 0.395463 17.632 -5.77478 -3.62645 14.6318 0.11528
lowerback 3.27506 -1.53345 -2.0306
upperback -1.08697 -2.09784 1.35942
thorax -2.83016 -0.997277 2.65496
lowerneck -24.3656 1.9659 -7.1576
upperneck 8.25999 5.34633 -3.34104
head 6.3184 2.01398 0.668052
rclavicle 4.05769e-014 -6.36111e-015
rhumerus 38.9588 -72.2233 -26.6297
rradius 85.3271
rwrist 15.2411
rhand -44.4106 -0.362465
rfingers 7.12502
rthumb -17.2164 -29.6198
lclavicle 4.05769e-014 -6.36111e-015
lhumerus 14.4614 28.425 38.6988
lradius 76.0126
lwrist 2.83626
lhand -19.3124 19.705
lfingers 7.12502
lthumb 7.00358 49.5691
rfemur -0.746214 -5.10649 10.9901
rtibia 43.5817
rfoot -21.1819 -16.9238
rtoes -0.159173
lfemur -6.61623 1.43862 -12.5357
ltibia 26.4583
lfoot -12.0675 0.356294
ltoes -20.3795
1705
root 0.486583 17.6484 -5.77005 -3.65303 14.7592 0.224658
lowerback 3.14231 -1.50851 -2.26695
upperback -1.08305 -2.07365 1.3215
thorax -2.74617 -0.982814 2.74275
lowerneck -24.2922 2.00672 -7.26019
upperneck 8.23006 5.38836 -3.10586
head 6.28514 2.05531 0.763802
rclavicle 1.91579e-014 1.82882e-014
rhumerus 44.3961 -73.1682 -31.614
rradius 86.086
rwrist 15.4531
rhand -44.8556 -0.0802607
rfingers 7.12502
rthumb -17.6447 -29.2996
lclavicle 1.91579e-014 1.82882e-014
lhumerus 13.9753 28.4725 39.3312
lradius 76.6673
lwrist 2.92886
lhand -19.42 19.7471
lfingers 7.12502
lthumb 6.89974 49.6147
rfemur -1.58679 -5.10481 10.5421
rtibia 45.0445
rfoot -19.8619 -17.7141
rtoes 1.44709
lfemur -6.30551 1.42042 -12.952
ltibia 26.0987
lfoot -12.0509 0.124077
ltoes -19.8693
1706
root 0.576084 17.6653 -5.76932 -3.6156 14.9312 0.386661
lowerback 3.03911 -1.48119 -2.51613
upperback -1.10271 -2.04765 1.24966
thorax -2.70425 -0.966653 2.8043
lowerneck -24.4635 2.00984 -7.28581
upperneck 8.41012 5.41169 -2.99924
head 6.36554 2.06517 0.80938
rclavicle -3.02401e-014 -2.78299e-015
rhumerus 50.1781 -73.8919 -37.1006
rradius 86.8917
rwrist 15.7868
rhand -45.2794 0.0558177
rfingers 7.12502
rthumb -18.0525 -29.1264
lclavicle -3.02401e-014 -2.78299e-015
lhumerus 13.4086 28.4322 40.004
lradius 77.3967
lwrist 3.15627
lhand -19.4323 19.7885
lfingers 7.12502
lthumb 6.88789 49.6565
rfemur -2.55724 -5.1515 10.0586
rtibia 46.5135
rfoot -18.703 -18.4927
rtoes 2.88912
lfemur -6.06968 1.35261 -13.4326
ltibia 25.7644
lfoot -12.0267 -0.107797
ltoes -19.6855
1707
root 0.659632 17.6773 -5.76973 -3.70201 15.1171 0.462273
lowerback 3.09044 -1.46628 -2.76082
upperback -1.13043 -2.03979 1.23839
thorax -2.75458 -0.957308 2.93203
lowerneck -24.5883 1.97973 -7.38316
upperneck 8.61731 5.40689 -2.86835
head 6.44602 2.06076 0.870469
rclavicle 3.60297e-014 -4.77083e-015
rhumerus 55.917 -74.3187 -42.5571
rradius 87.6695
rwrist 16.142
rhand -45.7119 -0.295331
rfingers 7.12502
rthumb -18.4686 -29.4386
lclavicle 3.60297e-014 -4.77083e-015
lhumerus 12.6526 28.3119 40.7441
lradius 78.1348
lwrist 3.21775
lhand -19.3008 19.8561
lfingers 7.12502
lthumb 7.01477 49.7198
rfemur -3.4103 -5.24135 9.69412
rtibia 47.9582
rfoot -17.662 -19.111
rtoes 4.78371
lfemur -5.76693 1.41449 -13.7783
ltibia 25.486
lfoot -12.1229 -0.546644
ltoes -19.2652
1708
root 0.734853 17.6859 -5.7722 -3.92236 15.3418 0.294461
lowerback 3.29192 -1.48423 -2.90102
upperback -1.18556 -2.07285 1.33393
thorax -2.91455 -0.966573 3.11911
lowerneck -24.4314 1.96937 -7.5249
upperneck 8.63768 5.40264 -2.72806
head 6.42037 2.06827 0.935693
rclavicle -6.21202e-016 -3.57812e-015
rhumerus 61.2418 -74.482 -47.6263
rradius 88.389
rwrist 16.3155
rhand -46.1429 -0.536841
rfingers 7.12502
rthumb -18.8831 -29.6403
lclavicle -6.21202e-016 -3.57812e-015
lhumerus 11.6309 28.0146 41.3567
lradius 78.9
lwrist 3.46897
lhand -19.396 19.8767
lfingers 7.12502
lthumb 6.92293 49.7435
rfemur -4.18874 -5.3608 9.65361
rtibia 49.3563
rfoot -16.6223 -19.7599
rtoes 6.51258
lfemur -5.47951 1.51269 -13.8121
ltibia 25.2718
lfoot -12.1945 -1.09384
ltoes -18.4359
